<svg width="39" height="31" viewBox="0 0 39 31" fill="none" xmlns="http://www.w3.org/2000/svg">
<path d="M38.8993 4.55224C38.7235 3.66666 38.3308 2.85627 37.7825 2.18679C37.6668 2.04092 37.546 1.91029 37.4151 1.77966C36.4435 0.803284 35.0799 0.194214 33.5902 0.194214H5.4098C3.92011 0.194214 2.56136 0.803284 1.58521 1.77966C1.45458 1.91029 1.33377 2.04092 1.21784 2.18679C0.66917 2.85619 0.276504 3.66666 0.105574 4.55224C0.0353438 4.89402 0 5.24723 0 5.60432V25.3963C0 26.1556 0.161027 26.8854 0.448195 27.5446C0.714568 28.1737 1.10731 28.7431 1.58514 29.2204C1.70625 29.3412 1.82653 29.4523 1.95777 29.5627C2.89362 30.3378 4.10163 30.8059 5.4098 30.8059H33.5902C34.8988 30.8059 36.1121 30.3378 37.0425 29.5579C37.1734 29.4523 37.2943 29.3412 37.4151 29.2204C37.8927 28.7431 38.2854 28.1737 38.5572 27.5446V27.5397C38.8443 26.8806 38.9999 26.1556 38.9999 25.3964V5.60432C39 5.24723 38.9652 4.89402 38.8993 4.55224ZM3.54268 3.73689C4.02599 3.25411 4.67505 2.96184 5.4098 2.96184H33.5902C34.325 2.96184 34.9797 3.25411 35.4573 3.73689C35.5428 3.82289 35.6233 3.91871 35.6944 4.01393L20.9241 16.8866C20.5167 17.2436 20.0136 17.4199 19.5 17.4199C18.9916 17.4199 18.4887 17.2436 18.076 16.8866L3.31134 4.00844C3.3767 3.91323 3.45721 3.82289 3.54268 3.73689ZM2.76763 25.3963V6.87243L13.4564 16.197L2.77304 25.5117C2.76763 25.4763 2.76763 25.4366 2.76763 25.3963ZM33.5902 28.0377H5.4098C4.93137 28.0377 4.48371 27.9119 4.10163 27.691L15.3734 17.8679L16.4257 18.7834C17.3063 19.5486 18.4083 19.9361 19.5 19.9361C20.5973 19.9361 21.6992 19.5486 22.5798 18.7834L23.6316 17.8679L34.8989 27.691C34.5163 27.9119 34.0686 28.0377 33.5902 28.0377ZM36.2324 25.3963C36.2324 25.4366 36.2324 25.4763 36.2272 25.5117L25.5439 16.2024L36.2324 6.87738V25.3963Z" fill="black"/>
</svg>
