<svg width="75" height="75" viewBox="0 0 75 75" fill="none" xmlns="http://www.w3.org/2000/svg">
<path d="M37.4999 -0.000488281C16.787 -0.000488281 -6.10352e-05 16.7866 -6.10352e-05 37.4995C-6.10352e-05 58.2124 16.787 74.9995 37.4999 74.9995C58.2128 74.9995 74.9999 58.2124 74.9999 37.4995C74.9999 16.7866 58.2128 -0.000488281 37.4999 -0.000488281ZM60.9081 60.8931C57.8613 63.9399 54.331 66.3276 50.3906 67.9829C46.3183 69.7114 41.9824 70.5757 37.4999 70.5757C33.0322 70.5757 28.6962 69.6968 24.6093 67.9829C20.6689 66.313 17.124 63.9253 14.0917 60.8931C11.0449 57.8462 8.65717 54.3159 7.00189 50.3755C5.27338 46.3032 4.39447 41.9673 4.39447 37.4995C4.39447 33.0317 5.27338 28.6958 6.98724 24.6089C8.65717 20.6685 11.0449 17.1235 14.0771 14.0913C17.1386 11.0444 20.6689 8.65674 24.6093 6.98682C28.6962 5.27295 33.0322 4.39404 37.4999 4.39404C41.9677 4.39404 46.3036 5.27295 50.3906 6.98682C54.331 8.65674 57.8759 11.0444 60.9081 14.0767C63.955 17.1235 66.3427 20.6538 67.998 24.5942C69.7265 28.6665 70.5908 33.0024 70.5908 37.4849C70.5908 41.9526 69.7119 46.2886 67.998 50.3755C66.3281 54.3159 63.9404 57.8608 60.9081 60.8931Z" fill="black"/>
<path d="M42.4511 24.7114C43.9599 24.7114 45.5712 25.1802 45.5712 25.1802L46.538 19.438C46.538 19.438 44.4872 18.7349 39.5947 18.7349C36.5917 18.7349 34.8486 19.8774 33.5742 21.562C32.373 23.1587 32.329 25.7222 32.329 27.3774V31.1421H28.4472V36.7524H32.329V56.2349H39.5947V36.7524H45.3515L45.7763 31.1421H39.5947V26.7622C39.5947 25.2534 40.9423 24.7114 42.4511 24.7114Z" fill="black"/>
</svg>
