<svg width="75" height="75" viewBox="0 0 75 75" fill="none" xmlns="http://www.w3.org/2000/svg">
<path d="M37.4999 -0.000488281C16.787 -0.000488281 -6.10352e-05 16.7866 -6.10352e-05 37.4995C-6.10352e-05 58.2124 16.787 74.9995 37.4999 74.9995C58.2128 74.9995 74.9999 58.2124 74.9999 37.4995C74.9999 16.7866 58.2128 -0.000488281 37.4999 -0.000488281ZM60.9081 60.8931C57.8613 63.9399 54.331 66.3276 50.3906 67.9829C46.3183 69.7114 41.9824 70.5757 37.4999 70.5757C33.0322 70.5757 28.6962 69.6968 24.6093 67.9829C20.6689 66.313 17.124 63.9253 14.0917 60.8931C11.0449 57.8462 8.65717 54.3159 7.00189 50.3755C5.27338 46.3032 4.39447 41.9673 4.39447 37.4995C4.39447 33.0317 5.27338 28.6958 6.98724 24.6089C8.65717 20.6685 11.0449 17.1235 14.0771 14.0913C17.1386 11.0444 20.6689 8.65674 24.6093 6.98682C28.6962 5.27295 33.0322 4.39404 37.4999 4.39404C41.9677 4.39404 46.3036 5.27295 50.3906 6.98682C54.331 8.65674 57.8759 11.0444 60.9081 14.0767C63.955 17.1235 66.3427 20.6538 67.998 24.5942C69.7265 28.6665 70.5908 33.0024 70.5908 37.4849C70.5908 41.9526 69.7119 46.2886 67.998 50.3755C66.3281 54.3159 63.9404 57.8608 60.9081 60.8931Z" fill="black"/>
<path d="M45.3278 18.9995H30.172C27.2097 19.0018 24.3693 20.1795 22.2747 22.2741C20.18 24.3687 19.0022 27.2089 18.9999 30.1711V45.3262C19.0017 48.2887 20.1793 51.1294 22.2741 53.2243C24.3688 55.3193 27.2094 56.4973 30.172 56.4995H45.3278C48.2903 56.4968 51.1307 55.3187 53.2253 53.2238C55.32 51.129 56.4977 48.2886 56.4999 45.3262V30.1711C56.4986 27.2086 55.3211 24.3679 53.2262 22.2731C51.1313 20.1783 48.2904 19.0009 45.3278 18.9995ZM52.7293 45.3262C52.7289 47.289 51.9489 49.1712 50.561 50.5591C49.173 51.947 47.2907 52.7269 45.3278 52.7274H30.172C29.2001 52.7274 28.2378 52.5359 27.3399 52.1639C26.442 51.792 25.6262 51.2468 24.939 50.5595C24.2519 49.8722 23.7068 49.0563 23.3351 48.1584C22.9633 47.2604 22.772 46.2981 22.7723 45.3262V30.1711C22.772 29.1993 22.9633 28.237 23.3351 27.3392C23.7069 26.4414 24.2519 25.6256 24.9391 24.9384C25.6263 24.2513 26.4421 23.7062 27.34 23.3345C28.2379 22.9627 29.2002 22.7714 30.172 22.7717H45.3278C47.2902 22.7721 49.1721 23.5518 50.5598 24.9394C51.9474 26.327 52.7272 28.2088 52.7276 30.1711L52.7293 45.3262Z" fill="black"/>
<path d="M37.7431 28.091C32.3593 28.091 27.9843 32.4468 27.9843 37.8031C27.9843 43.1594 32.361 47.5151 37.7431 47.5151C43.1252 47.5151 47.502 43.1594 47.502 37.8031C47.502 32.4468 43.127 28.091 37.7431 28.091ZM37.7431 43.7365C36.1619 43.7367 34.6454 43.1118 33.5271 41.9993C32.4089 40.8867 31.7805 39.3776 31.7803 37.8039C31.78 36.2303 32.408 34.721 33.5259 33.6081C34.6438 32.4952 36.1602 31.8699 37.7414 31.8696C39.3226 31.8694 40.8392 32.4943 41.9575 33.6069C43.0757 34.7195 43.7041 36.2286 43.7043 37.8022C43.7045 39.3759 43.0766 40.8852 41.9587 41.998C40.8407 43.1109 39.3244 43.7363 37.7431 43.7365ZM47.5226 25.8354C47.9849 25.8358 48.4368 25.9725 48.8211 26.2284C49.2054 26.4842 49.5049 26.8477 49.6816 27.2729C49.8584 27.6981 49.9046 28.1659 49.8143 28.6172C49.724 29.0685 49.5013 29.483 49.1744 29.8084C48.8474 30.1337 48.4309 30.3553 47.9775 30.4452C47.524 30.5351 47.054 30.4891 46.6267 30.3132C46.1995 30.1372 45.8343 29.8392 45.5772 29.4568C45.3201 29.0743 45.1827 28.6246 45.1824 28.1644C45.1824 26.8804 46.0574 25.8354 47.5226 25.8354Z" fill="black"/>
</svg>
