<svg width="23" height="26" viewBox="0 0 23 26" fill="none" xmlns="http://www.w3.org/2000/svg">
<path d="M8.86891 25.9996C8.57504 25.9997 8.28475 25.9326 8.01861 25.803C7.75248 25.6735 7.51702 25.4847 7.32891 25.25L0.545118 16.785C0.357525 16.5776 0.212723 16.3326 0.119616 16.0649C0.0265097 15.7972 -0.0129331 15.5126 0.0037132 15.2285C0.0203595 14.9444 0.0927429 14.6669 0.216412 14.4129C0.340082 14.159 0.512424 13.934 0.722839 13.7518C0.933255 13.5697 1.1773 13.4342 1.43996 13.3537C1.70262 13.2732 1.97835 13.2494 2.25019 13.2837C2.52203 13.3181 2.78424 13.4099 3.02069 13.5535C3.25714 13.697 3.46283 13.8894 3.62512 14.1186L8.56676 20.284L19.2551 1.04219C19.5214 0.563139 19.9598 0.213642 20.474 0.0705848C20.9882 -0.0724726 21.536 0.002628 21.9969 0.279365C22.4578 0.556103 22.7941 1.01181 22.9317 1.54623C23.0694 2.08065 22.9971 2.65002 22.7309 3.12907L10.6039 24.9542C10.4423 25.2449 10.2157 25.4908 9.94314 25.671C9.67063 25.8513 9.36031 25.9605 9.03851 25.9895C8.98149 25.9951 8.92424 25.9979 8.86697 25.9976L8.86891 25.9996Z" fill="black"/>
</svg>
