<svg width="75" height="75" viewBox="0 0 75 75" fill="none" xmlns="http://www.w3.org/2000/svg">
<path d="M37.4999 -0.000488281C16.787 -0.000488281 -6.10352e-05 16.7866 -6.10352e-05 37.4995C-6.10352e-05 58.2124 16.787 74.9995 37.4999 74.9995C58.2128 74.9995 74.9999 58.2124 74.9999 37.4995C74.9999 16.7866 58.2128 -0.000488281 37.4999 -0.000488281ZM60.9081 60.8931C57.8613 63.9399 54.331 66.3276 50.3906 67.9829C46.3183 69.7114 41.9824 70.5757 37.4999 70.5757C33.0322 70.5757 28.6962 69.6968 24.6093 67.9829C20.6689 66.313 17.124 63.9253 14.0917 60.8931C11.0449 57.8462 8.65717 54.3159 7.00189 50.3755C5.27338 46.3032 4.39447 41.9673 4.39447 37.4995C4.39447 33.0317 5.27338 28.6958 6.98724 24.6089C8.65717 20.6685 11.0449 17.1235 14.0771 14.0913C17.1386 11.0444 20.6689 8.65674 24.6093 6.98682C28.6962 5.27295 33.0322 4.39404 37.4999 4.39404C41.9677 4.39404 46.3036 5.27295 50.3906 6.98682C54.331 8.65674 57.8759 11.0444 60.9081 14.0767C63.955 17.1235 66.3427 20.6538 67.998 24.5942C69.7265 28.6665 70.5908 33.0024 70.5908 37.4849C70.5908 41.9526 69.7119 46.2886 67.998 50.3755C66.3281 54.3159 63.9404 57.8608 60.9081 60.8931Z" fill="black"/>
<path d="M55.2685 24.6235C53.7743 25.5024 52.1337 26.147 50.3759 26.4985C48.9697 25.0044 46.9628 24.0669 44.7509 24.0669C40.5029 24.0669 37.0458 27.5239 37.0458 31.772C37.0458 32.3726 37.1044 32.9585 37.2509 33.5298C30.8495 33.2075 25.166 30.146 21.372 25.4731C20.7128 26.6157 20.332 27.9341 20.332 29.355C20.332 32.021 21.6943 34.3794 23.7597 35.771C22.4999 35.7271 21.3134 35.3755 20.2734 34.8042V34.8921C20.2734 38.6274 22.9247 41.7476 26.455 42.4507C25.8105 42.6265 25.122 42.729 24.4189 42.729C23.9208 42.729 23.4374 42.6851 22.9687 42.5972C23.9501 45.6587 26.7919 47.8853 30.1611 47.9438C27.5244 50.0093 24.1992 51.2397 20.5956 51.2397C19.9804 51.2397 19.3652 51.2104 18.7499 51.1372C22.163 53.3198 26.206 54.5942 30.5566 54.5942C44.7363 54.5942 52.4853 42.8462 52.4853 32.6655C52.4853 32.3286 52.4853 31.9917 52.4706 31.6694C53.9794 30.5708 55.2831 29.2231 56.3085 27.6704C54.9316 28.2856 53.4374 28.6958 51.8847 28.8862C53.4814 27.9341 54.6972 26.4253 55.2685 24.6235Z" fill="black"/>
</svg>
